<?xml version="1.0" encoding="UTF-8"?>

<svg width="40px" height="43px" viewBox="-4 1 30 30" preserveAspectRatio="xMaxYMax meet" version="1.1" xmlns="http://www.w3.org/2000/svg" xmlns:xlink="http://www.w3.org/1999/xlink">
    <defs></defs>
    <g id="Page-1" stroke="none" stroke-width="1" fill="none" fill-rule="evenodd">
        <g id="codesandbox" transform="translate(1.000000, 1.000000)" stroke="#FFFFFF" fill-rule="nonzero" fill="#FFFFFF">
            <path d="M0,6 L10.455,0 L20.91,6 L21,17.95 L10.455,24 L0,18 L0,6 Z M2.088,8.481 L2.088,13.238 L5.433,15.098 L5.433,18.614 L9.405,20.91 L9.405,12.638 L2.088,8.481 Z M18.827,8.481 L11.51,12.638 L11.51,20.91 L15.482,18.614 L15.482,15.1 L18.827,13.239 L18.827,8.48 L18.827,8.481 Z M3.134,6.601 L10.437,10.745 L17.757,6.565 L13.886,4.368 L10.476,6.313 L7.046,4.345 L3.133,6.6 L3.134,6.601 Z" id="Shape"></path>
        </g>
    </g>
</svg>
